<svg width="27" height="30" viewBox="0 0 27 30" fill="none" xmlns="http://www.w3.org/2000/svg">
<path d="M25.9464 23.9857C25.2726 22.3899 24.295 20.9404 23.0678 19.7178C21.8443 18.4918 20.395 17.5143 18.7999 16.8393C18.7856 16.8321 18.7714 16.8286 18.7571 16.8214C20.9821 15.2143 22.4285 12.5964 22.4285 9.64285C22.4285 4.74999 18.4642 0.785706 13.5714 0.785706C8.6785 0.785706 4.71422 4.74999 4.71422 9.64285C4.71422 12.5964 6.16065 15.2143 8.38565 16.825C8.37136 16.8321 8.35708 16.8357 8.34279 16.8428C6.74279 17.5178 5.30708 18.4857 4.07493 19.7214C2.8489 20.9449 1.87138 22.3942 1.19636 23.9893C0.533226 25.5509 0.175582 27.2252 0.14279 28.9214C0.141836 28.9595 0.148522 28.9975 0.162453 29.033C0.176384 29.0684 0.197279 29.1008 0.223905 29.1281C0.250532 29.1554 0.282352 29.1771 0.31749 29.1919C0.352628 29.2067 0.390375 29.2143 0.428504 29.2143H2.57136C2.7285 29.2143 2.8535 29.0893 2.85708 28.9357C2.9285 26.1786 4.03565 23.5964 5.99279 21.6393C8.01779 19.6143 10.7071 18.5 13.5714 18.5C16.4356 18.5 19.1249 19.6143 21.1499 21.6393C23.1071 23.5964 24.2142 26.1786 24.2856 28.9357C24.2892 29.0928 24.4142 29.2143 24.5714 29.2143H26.7142C26.7523 29.2143 26.7901 29.2067 26.8252 29.1919C26.8604 29.1771 26.8922 29.1554 26.9188 29.1281C26.9454 29.1008 26.9663 29.0684 26.9803 29.033C26.9942 28.9975 27.0009 28.9595 26.9999 28.9214C26.9642 27.2143 26.6106 25.5536 25.9464 23.9857ZM13.5714 15.7857C11.9321 15.7857 10.3892 15.1464 9.2285 13.9857C8.06779 12.825 7.4285 11.2821 7.4285 9.64285C7.4285 8.00356 8.06779 6.46071 9.2285 5.29999C10.3892 4.13928 11.9321 3.49999 13.5714 3.49999C15.2106 3.49999 16.7535 4.13928 17.9142 5.29999C19.0749 6.46071 19.7142 8.00356 19.7142 9.64285C19.7142 11.2821 19.0749 12.825 17.9142 13.9857C16.7535 15.1464 15.2106 15.7857 13.5714 15.7857Z" fill="white"/>
</svg>
